<mxfile host="Electron" modified="2022-11-21T16:08:39.834Z" agent="5.0 (X11; Linux x86_64) AppleWebKit/537.36 (KHTML, like Gecko) draw.io/20.3.0 Chrome/104.0.5112.81 Electron/20.0.3 Safari/537.36" etag="ccRhvD5Nk_DrtwH_sec4" compressed="false" version="20.3.0" type="device">
  <diagram id="xjTkYxvvwYYxmoaiQUtT" name="第 1 页">
    <mxGraphModel dx="825" dy="344" grid="1" gridSize="10" guides="1" tooltips="1" connect="1" arrows="1" fold="1" page="1" pageScale="1" pageWidth="827" pageHeight="1169" math="0" shadow="0">
      <root>
        <mxCell id="0" />
        <mxCell id="1" parent="0" />
        <mxCell id="z6kmYuK5ZNP2lOpZjIQz-36" value="" style="rounded=0;whiteSpace=wrap;html=1;" parent="1" vertex="1">
          <mxGeometry x="734" y="420" width="270" height="180" as="geometry" />
        </mxCell>
        <mxCell id="bX5OqZFYFbe0-xXiERjw-24" value="" style="rounded=0;whiteSpace=wrap;html=1;labelBackgroundColor=none;labelBorderColor=none;fontSize=14;fillColor=#E6E6E6;dashed=1;strokeWidth=1;" parent="1" vertex="1">
          <mxGeometry x="743" y="470" width="80" height="120" as="geometry" />
        </mxCell>
        <mxCell id="bX5OqZFYFbe0-xXiERjw-25" value="" style="rounded=0;whiteSpace=wrap;html=1;labelBackgroundColor=none;labelBorderColor=none;fontSize=14;fillColor=#E6E6E6;dashed=1;strokeWidth=1;" parent="1" vertex="1">
          <mxGeometry x="829" y="470" width="80" height="120" as="geometry" />
        </mxCell>
        <mxCell id="bX5OqZFYFbe0-xXiERjw-26" value="" style="rounded=0;whiteSpace=wrap;html=1;labelBackgroundColor=none;labelBorderColor=none;fontSize=14;fillColor=#E6E6E6;dashed=1;strokeWidth=1;" parent="1" vertex="1">
          <mxGeometry x="917" y="470" width="80" height="120" as="geometry" />
        </mxCell>
        <mxCell id="z6kmYuK5ZNP2lOpZjIQz-1" value="" style="rounded=0;whiteSpace=wrap;html=1;" parent="1" vertex="1">
          <mxGeometry x="216" y="420" width="190" height="180" as="geometry" />
        </mxCell>
        <mxCell id="z6kmYuK5ZNP2lOpZjIQz-2" value="Decoder" style="rounded=0;whiteSpace=wrap;html=1;" parent="1" vertex="1">
          <mxGeometry x="230" y="440" width="80" height="30" as="geometry" />
        </mxCell>
        <mxCell id="z6kmYuK5ZNP2lOpZjIQz-3" value="Control Flow Analyzer" style="rounded=0;whiteSpace=wrap;html=1;fillColor=#CCE5FF;" parent="1" vertex="1">
          <mxGeometry x="230" y="480" width="80" height="30" as="geometry" />
        </mxCell>
        <mxCell id="z6kmYuK5ZNP2lOpZjIQz-4" value="Pattern Recognizer" style="rounded=0;whiteSpace=wrap;html=1;fillColor=#CCE5FF;" parent="1" vertex="1">
          <mxGeometry x="230" y="560" width="80" height="30" as="geometry" />
        </mxCell>
        <mxCell id="z6kmYuK5ZNP2lOpZjIQz-5" value="Function Identifier" style="rounded=0;whiteSpace=wrap;html=1;fillColor=#CCE5FF;" parent="1" vertex="1">
          <mxGeometry x="230" y="520" width="80" height="30" as="geometry" />
        </mxCell>
        <mxCell id="z6kmYuK5ZNP2lOpZjIQz-6" value="&lt;font style=&quot;font-size: 14px;&quot;&gt;Analyzer&lt;/font&gt;" style="text;html=1;resizable=0;autosize=1;align=center;verticalAlign=middle;points=[];fillColor=none;strokeColor=none;rounded=0;" parent="1" vertex="1">
          <mxGeometry x="334" y="413" width="80" height="30" as="geometry" />
        </mxCell>
        <mxCell id="z6kmYuK5ZNP2lOpZjIQz-7" value="" style="rounded=0;whiteSpace=wrap;html=1;" parent="1" vertex="1">
          <mxGeometry x="420" y="420" width="300" height="180" as="geometry" />
        </mxCell>
        <mxCell id="z6kmYuK5ZNP2lOpZjIQz-8" value="Decoder" style="rounded=0;whiteSpace=wrap;html=1;" parent="1" vertex="1">
          <mxGeometry x="436" y="430" width="80" height="30" as="geometry" />
        </mxCell>
        <mxCell id="z6kmYuK5ZNP2lOpZjIQz-9" value="Context&lt;br&gt;Generator" style="rounded=0;whiteSpace=wrap;html=1;fillColor=#CCE5FF;" parent="1" vertex="1">
          <mxGeometry x="436" y="470" width="80" height="80" as="geometry" />
        </mxCell>
        <mxCell id="z6kmYuK5ZNP2lOpZjIQz-11" value="Assembler" style="rounded=0;whiteSpace=wrap;html=1;" parent="1" vertex="1">
          <mxGeometry x="436" y="560" width="80" height="30" as="geometry" />
        </mxCell>
        <mxCell id="z6kmYuK5ZNP2lOpZjIQz-12" value="&lt;font style=&quot;font-size: 14px;&quot;&gt;Generator&lt;/font&gt;" style="text;html=1;resizable=0;autosize=1;align=center;verticalAlign=middle;points=[];fillColor=none;strokeColor=none;rounded=0;" parent="1" vertex="1">
          <mxGeometry x="638" y="414" width="90" height="30" as="geometry" />
        </mxCell>
        <mxCell id="z6kmYuK5ZNP2lOpZjIQz-13" value="&lt;p style=&quot;line-height: 0.9;&quot;&gt;Prologue&lt;br&gt;&lt;font style=&quot;font-size: 9px;&quot;&gt;TEE Create&lt;/font&gt;&lt;/p&gt;" style="rounded=0;whiteSpace=wrap;html=1;" parent="1" vertex="1">
          <mxGeometry x="550" y="430" width="80" height="30" as="geometry" />
        </mxCell>
        <mxCell id="z6kmYuK5ZNP2lOpZjIQz-14" value="&lt;p style=&quot;line-height: 0.9;&quot;&gt;Epilogue&lt;br&gt;&lt;font style=&quot;font-size: 9px;&quot;&gt;TEE Exit&lt;/font&gt;&lt;/p&gt;" style="rounded=0;whiteSpace=wrap;html=1;" parent="1" vertex="1">
          <mxGeometry x="550" y="560" width="80" height="30" as="geometry" />
        </mxCell>
        <mxCell id="z6kmYuK5ZNP2lOpZjIQz-15" value="Original&lt;br&gt;Code" style="rounded=0;whiteSpace=wrap;html=1;fillColor=#E6E6E6;" parent="1" vertex="1">
          <mxGeometry x="550" y="490" width="80" height="40" as="geometry" />
        </mxCell>
        <mxCell id="z6kmYuK5ZNP2lOpZjIQz-16" value="&lt;font style=&quot;font-size: 9px; line-height: 1;&quot;&gt;ABI/MEM&lt;br&gt;Enter Wrapper&lt;/font&gt;" style="rounded=0;whiteSpace=wrap;html=1;" parent="1" vertex="1">
          <mxGeometry x="550" y="460" width="80" height="30" as="geometry" />
        </mxCell>
        <mxCell id="z6kmYuK5ZNP2lOpZjIQz-18" value="&lt;font style=&quot;font-size: 9px;&quot;&gt;ABI/MEM&lt;br&gt;Exit Wrapper&lt;/font&gt;" style="rounded=0;whiteSpace=wrap;html=1;" parent="1" vertex="1">
          <mxGeometry x="550" y="530" width="80" height="30" as="geometry" />
        </mxCell>
        <mxCell id="z6kmYuK5ZNP2lOpZjIQz-19" value="" style="endArrow=none;dashed=1;html=1;rounded=0;exitX=1;exitY=1;exitDx=0;exitDy=0;entryX=0;entryY=1;entryDx=0;entryDy=0;" parent="1" source="z6kmYuK5ZNP2lOpZjIQz-9" target="z6kmYuK5ZNP2lOpZjIQz-14" edge="1">
          <mxGeometry width="50" height="50" relative="1" as="geometry">
            <mxPoint x="760" y="460" as="sourcePoint" />
            <mxPoint x="810" y="410" as="targetPoint" />
          </mxGeometry>
        </mxCell>
        <mxCell id="z6kmYuK5ZNP2lOpZjIQz-21" value="" style="endArrow=none;dashed=1;html=1;rounded=0;entryX=0;entryY=0;entryDx=0;entryDy=0;exitX=1;exitY=0;exitDx=0;exitDy=0;" parent="1" source="z6kmYuK5ZNP2lOpZjIQz-9" target="z6kmYuK5ZNP2lOpZjIQz-13" edge="1">
          <mxGeometry width="50" height="50" relative="1" as="geometry">
            <mxPoint x="470" y="390" as="sourcePoint" />
            <mxPoint x="520" y="340" as="targetPoint" />
          </mxGeometry>
        </mxCell>
        <mxCell id="z6kmYuK5ZNP2lOpZjIQz-33" value="Helper&lt;br&gt;Generator" style="rounded=0;whiteSpace=wrap;html=1;fillColor=#CCE5FF;" parent="1" vertex="1">
          <mxGeometry x="645" y="510" width="70" height="30" as="geometry" />
        </mxCell>
        <mxCell id="z6kmYuK5ZNP2lOpZjIQz-35" value="Other&lt;br&gt;Generators" style="rounded=0;whiteSpace=wrap;html=1;" parent="1" vertex="1">
          <mxGeometry x="645" y="560" width="70" height="30" as="geometry" />
        </mxCell>
        <mxCell id="z6kmYuK5ZNP2lOpZjIQz-37" value="&lt;font style=&quot;font-size: 14px;&quot;&gt;Executor&lt;/font&gt;" style="text;html=1;resizable=0;autosize=1;align=center;verticalAlign=middle;points=[];fillColor=none;strokeColor=none;rounded=0;" parent="1" vertex="1">
          <mxGeometry x="931" y="414" width="80" height="30" as="geometry" />
        </mxCell>
        <mxCell id="z6kmYuK5ZNP2lOpZjIQz-38" value="Syscall&lt;br&gt;Simulator" style="rounded=0;whiteSpace=wrap;html=1;" parent="1" vertex="1">
          <mxGeometry x="834" y="480" width="70" height="30" as="geometry" />
        </mxCell>
        <mxCell id="z6kmYuK5ZNP2lOpZjIQz-39" value="Context&lt;br&gt;Saver" style="rounded=0;whiteSpace=wrap;html=1;" parent="1" vertex="1">
          <mxGeometry x="748" y="480" width="70" height="30" as="geometry" />
        </mxCell>
        <mxCell id="z6kmYuK5ZNP2lOpZjIQz-40" value="Encryption&lt;br&gt;Decryption" style="rounded=0;whiteSpace=wrap;html=1;" parent="1" vertex="1">
          <mxGeometry x="748" y="520" width="70" height="30" as="geometry" />
        </mxCell>
        <mxCell id="z6kmYuK5ZNP2lOpZjIQz-41" value="Profiler" style="rounded=0;whiteSpace=wrap;html=1;fillColor=#E6FFCC;" parent="1" vertex="1">
          <mxGeometry x="922" y="520" width="70" height="30" as="geometry" />
        </mxCell>
        <mxCell id="z6kmYuK5ZNP2lOpZjIQz-42" value="Optimizer" style="rounded=0;whiteSpace=wrap;html=1;fillColor=#E6FFCC;" parent="1" vertex="1">
          <mxGeometry x="922" y="480" width="70" height="30" as="geometry" />
        </mxCell>
        <mxCell id="z6kmYuK5ZNP2lOpZjIQz-43" value="&lt;font style=&quot;font-size: 9px;&quot;&gt;TEE cross node environment&lt;/font&gt;" style="rounded=0;whiteSpace=wrap;html=1;fillColor=#FFE6CC;" parent="1" vertex="1">
          <mxGeometry x="748" y="560" width="70" height="30" as="geometry" />
        </mxCell>
        <mxCell id="z6kmYuK5ZNP2lOpZjIQz-44" value="Hardware&lt;br&gt;Emulator" style="rounded=0;whiteSpace=wrap;html=1;" parent="1" vertex="1">
          <mxGeometry x="834" y="520" width="70" height="30" as="geometry" />
        </mxCell>
        <mxCell id="z6kmYuK5ZNP2lOpZjIQz-45" value="Atomic&lt;br&gt;Simulator" style="rounded=0;whiteSpace=wrap;html=1;fillColor=#FFE6CC;" parent="1" vertex="1">
          <mxGeometry x="834" y="560" width="70" height="30" as="geometry" />
        </mxCell>
        <mxCell id="bX5OqZFYFbe0-xXiERjw-1" value="&lt;p style=&quot;line-height: 1;&quot;&gt;Collector&lt;/p&gt;" style="rounded=0;whiteSpace=wrap;html=1;direction=north;rotation=-90;fillColor=#E6FFCC;" parent="1" vertex="1">
          <mxGeometry x="286" y="521.25" width="110" height="27.5" as="geometry" />
        </mxCell>
        <mxCell id="bX5OqZFYFbe0-xXiERjw-2" value="" style="endArrow=blockThin;html=1;rounded=0;exitX=1;exitY=0.5;exitDx=0;exitDy=0;entryX=1.009;entryY=0.863;entryDx=0;entryDy=0;entryPerimeter=0;endFill=1;startSize=6;endSize=3;" parent="1" source="z6kmYuK5ZNP2lOpZjIQz-3" target="bX5OqZFYFbe0-xXiERjw-1" edge="1">
          <mxGeometry width="50" height="50" relative="1" as="geometry">
            <mxPoint x="466" y="560" as="sourcePoint" />
            <mxPoint x="346" y="495" as="targetPoint" />
          </mxGeometry>
        </mxCell>
        <mxCell id="bX5OqZFYFbe0-xXiERjw-4" value="" style="endArrow=blockThin;html=1;rounded=0;exitX=1;exitY=0.5;exitDx=0;exitDy=0;entryX=1;entryY=0.5;entryDx=0;entryDy=0;endFill=1;startSize=6;endSize=3;" parent="1" source="z6kmYuK5ZNP2lOpZjIQz-5" target="bX5OqZFYFbe0-xXiERjw-1" edge="1">
          <mxGeometry width="50" height="50" relative="1" as="geometry">
            <mxPoint x="334" y="505" as="sourcePoint" />
            <mxPoint x="351.00249999999994" y="505.07000000000005" as="targetPoint" />
          </mxGeometry>
        </mxCell>
        <mxCell id="bX5OqZFYFbe0-xXiERjw-6" value="" style="endArrow=blockThin;html=1;rounded=0;exitX=1;exitY=0.5;exitDx=0;exitDy=0;entryX=1.0;entryY=0.138;entryDx=0;entryDy=0;entryPerimeter=0;endFill=1;startSize=6;endSize=3;" parent="1" source="z6kmYuK5ZNP2lOpZjIQz-4" target="bX5OqZFYFbe0-xXiERjw-1" edge="1">
          <mxGeometry width="50" height="50" relative="1" as="geometry">
            <mxPoint x="334" y="545" as="sourcePoint" />
            <mxPoint x="351.25" y="545" as="targetPoint" />
          </mxGeometry>
        </mxCell>
        <mxCell id="bX5OqZFYFbe0-xXiERjw-7" value="&lt;p style=&quot;line-height: 1;&quot;&gt;Serialization&lt;/p&gt;" style="rounded=0;whiteSpace=wrap;html=1;direction=north;rotation=-90;" parent="1" vertex="1">
          <mxGeometry x="326" y="521.25" width="110" height="27.5" as="geometry" />
        </mxCell>
        <mxCell id="bX5OqZFYFbe0-xXiERjw-8" value="" style="endArrow=blockThin;html=1;rounded=0;startSize=6;endSize=3;exitX=0;exitY=0.5;exitDx=0;exitDy=0;entryX=1;entryY=0.5;entryDx=0;entryDy=0;endFill=1;" parent="1" source="bX5OqZFYFbe0-xXiERjw-1" target="bX5OqZFYFbe0-xXiERjw-7" edge="1">
          <mxGeometry width="50" height="50" relative="1" as="geometry">
            <mxPoint x="586" y="580" as="sourcePoint" />
            <mxPoint x="636" y="530" as="targetPoint" />
          </mxGeometry>
        </mxCell>
        <mxCell id="bX5OqZFYFbe0-xXiERjw-12" value="" style="endArrow=blockThin;html=1;rounded=0;startSize=6;endSize=3;exitX=0;exitY=0.5;exitDx=0;exitDy=0;entryX=-0.002;entryY=0.64;entryDx=0;entryDy=0;entryPerimeter=0;endFill=1;" parent="1" source="bX5OqZFYFbe0-xXiERjw-7" target="z6kmYuK5ZNP2lOpZjIQz-7" edge="1">
          <mxGeometry width="50" height="50" relative="1" as="geometry">
            <mxPoint x="510" y="590" as="sourcePoint" />
            <mxPoint x="560" y="540" as="targetPoint" />
          </mxGeometry>
        </mxCell>
        <mxCell id="bX5OqZFYFbe0-xXiERjw-15" value="" style="endArrow=classic;html=1;rounded=0;startSize=6;endSize=3;entryX=0.5;entryY=0;entryDx=0;entryDy=0;exitX=1;exitY=0.25;exitDx=0;exitDy=0;edgeStyle=orthogonalEdgeStyle;curved=1;dashed=1;dashPattern=1 1;" parent="1" source="z6kmYuK5ZNP2lOpZjIQz-15" target="z6kmYuK5ZNP2lOpZjIQz-33" edge="1">
          <mxGeometry width="50" height="50" relative="1" as="geometry">
            <mxPoint x="550" y="560" as="sourcePoint" />
            <mxPoint x="600" y="510" as="targetPoint" />
            <Array as="points">
              <mxPoint x="630" y="490" />
              <mxPoint x="680" y="490" />
            </Array>
          </mxGeometry>
        </mxCell>
        <mxCell id="bX5OqZFYFbe0-xXiERjw-17" value="&lt;font style=&quot;line-height: 0.9; font-size: 7px;&quot;&gt;Special Operation&lt;/font&gt;" style="edgeLabel;html=1;align=center;verticalAlign=middle;resizable=0;points=[];labelBackgroundColor=none;labelBorderColor=none;" parent="bX5OqZFYFbe0-xXiERjw-15" vertex="1" connectable="0">
          <mxGeometry x="-0.2083" y="-1" relative="1" as="geometry">
            <mxPoint x="18" y="-11" as="offset" />
          </mxGeometry>
        </mxCell>
        <mxCell id="bX5OqZFYFbe0-xXiERjw-16" value="" style="endArrow=classic;html=1;rounded=0;startSize=6;endSize=3;entryX=1;entryY=0.75;entryDx=0;entryDy=0;exitX=0.5;exitY=1;exitDx=0;exitDy=0;edgeStyle=orthogonalEdgeStyle;curved=1;dashed=1;dashPattern=1 1;" parent="1" source="z6kmYuK5ZNP2lOpZjIQz-33" target="z6kmYuK5ZNP2lOpZjIQz-15" edge="1">
          <mxGeometry width="50" height="50" relative="1" as="geometry">
            <mxPoint x="640" y="510" as="sourcePoint" />
            <mxPoint x="690" y="530" as="targetPoint" />
            <Array as="points">
              <mxPoint x="680" y="550" />
              <mxPoint x="640" y="550" />
              <mxPoint x="640" y="520" />
            </Array>
          </mxGeometry>
        </mxCell>
        <mxCell id="bX5OqZFYFbe0-xXiERjw-18" value="Other Analyzers" style="rounded=0;whiteSpace=wrap;html=1;fillColor=#CCE5FF;" parent="1" vertex="1">
          <mxGeometry x="326" y="440" width="70" height="30" as="geometry" />
        </mxCell>
        <mxCell id="bX5OqZFYFbe0-xXiERjw-19" value="" style="endArrow=blockThin;html=1;rounded=0;entryX=0.5;entryY=1;entryDx=0;entryDy=0;endFill=1;startSize=6;endSize=3;" parent="1" target="bX5OqZFYFbe0-xXiERjw-1" edge="1">
          <mxGeometry width="50" height="50" relative="1" as="geometry">
            <mxPoint x="341" y="470" as="sourcePoint" />
            <mxPoint x="337.00249999999994" y="505.07000000000005" as="targetPoint" />
          </mxGeometry>
        </mxCell>
        <mxCell id="bX5OqZFYFbe0-xXiERjw-20" value="Environment&lt;br&gt;Setter" style="rounded=0;whiteSpace=wrap;html=1;" parent="1" vertex="1">
          <mxGeometry x="748" y="440" width="70" height="30" as="geometry" />
        </mxCell>
        <mxCell id="bX5OqZFYFbe0-xXiERjw-21" value="RPC&lt;br&gt;Socket" style="rounded=0;whiteSpace=wrap;html=1;fillColor=#FFE6CC;" parent="1" vertex="1">
          <mxGeometry x="922" y="560" width="70" height="30" as="geometry" />
        </mxCell>
        <mxCell id="bX5OqZFYFbe0-xXiERjw-22" value="Simulator&lt;br&gt;Emulator" style="rounded=0;whiteSpace=wrap;html=1;" parent="1" vertex="1">
          <mxGeometry x="834" y="440" width="70" height="30" as="geometry" />
        </mxCell>
        <mxCell id="bX5OqZFYFbe0-xXiERjw-23" value="Others" style="rounded=0;whiteSpace=wrap;html=1;" parent="1" vertex="1">
          <mxGeometry x="922" y="440" width="70" height="30" as="geometry" />
        </mxCell>
        <mxCell id="bX5OqZFYFbe0-xXiERjw-27" value="" style="endArrow=blockThin;html=1;rounded=0;startSize=6;endSize=3;endFill=1;entryX=0;entryY=0.5;entryDx=0;entryDy=0;" parent="1" source="z6kmYuK5ZNP2lOpZjIQz-7" target="z6kmYuK5ZNP2lOpZjIQz-36" edge="1">
          <mxGeometry width="50" height="50" relative="1" as="geometry">
            <mxPoint x="720" y="509.52" as="sourcePoint" />
            <mxPoint x="730" y="510" as="targetPoint" />
          </mxGeometry>
        </mxCell>
      </root>
    </mxGraphModel>
  </diagram>
</mxfile>
